<?xml version="1.0" encoding="utf-8"?>
<!-- Generator: Adobe Illustrator 22.1.0, SVG Export Plug-In . SVG Version: 6.00 Build 0)  -->
<svg version="1.1" id="Layer_1" xmlns="http://www.w3.org/2000/svg" xmlns:xlink="http://www.w3.org/1999/xlink" x="0px" y="0px"
	 viewBox="0 0 171 171" style="enable-background:new 0 0 171 171;" xml:space="preserve">
<style type="text/css">
	.st0{fill:#1C2857;}
	.st1{fill:#FDB717;}
	.st2{fill:#47C5DD;}
</style>
<g>
	<g>
		<path class="st0" d="M30.6,93.5c-4.2,11.3-6,25.9-4.2,38.8c6.6,9,15.2,16.4,25.3,21.4c-0.1-0.1-0.1-0.2-0.2-0.3
			c-7.6-13.2-21.4-31.8-18.5-55.1c11.9,35.8,29.2,57.1,52,65c11.7-0.5,25-7.3,34.5-13c-27-2.4-71.4-20.7-81.9-54.1
			c-3.9-12.4-1-18.9,4.3-24.5c-0.6,2.2-7,13.2-1.1,24.8c7.9,15.6,28.7,31.4,54.4,32.7c19.1,1,38.7-1.2,49.4-5.1
			c5.3-10,8.3-21.4,8.2-33.6c-0.4-38.6-32.3-69.8-70.9-69.2c-38.2,0.5-68.9,31.6-68.9,69.9c0,4.4,0.4,8.8,1.2,13
			C18.6,99.5,24,96.3,30.6,93.5z"/>
		<g>
			<path class="st1" d="M91.4,13.9l-3.7,52.2H65.2l1.8-37.9c0,0-5.9,2.6-10.2,4.7c-6.5,3.2-10.7,8-10.7,8l-2.8,39.9
				c0,18.3,16.4,28.3,19.1,28.6l1.8-26.9h22.6l-2.4,35.1c7.9,2.3,13.5,3.4,20,3.2l8.5-114.6L91.4,13.9z"/>
		</g>
	</g>
	<g>
		<path class="st2" d="M165.2,57c-1.1-2.3-3.5-3.7-6-3.7c-3.7,0-6.7,3-6.7,6.7c0,3.7,3,6.7,6.7,6.7c1,0,1.9-0.2,2.8-0.6
			c-11.8,19.1-41.3,11.9-51.8-3.5c-2.9-4.2-9.4-10.4-18.6-12.6C80.4,47.3,67,54.2,67,54.2l-0.5,10.1c0,0,14.9-0.1,23.1,7.4
			c6.3,5.7,10.3,11.9,8.1,19.8c2.1-3.3,4.2-8,2.3-13.1c-7.1-20.1-24.7-18.6-24.7-18.6s14.1-11.9,31.5,13.3c2.6,3.8,6.7,6.4,11,8
			c4.5,1.7,9.3,2.7,14.1,2.9c4.8,0.2,9.6-0.3,14.2-1.6c4.3-1.2,8.4-3.1,11.9-6c3.3-2.7,5.8-6.3,7-10.3c0.5-1.6,0.9-3.6,0.9-5.5
			C165.9,59.3,165.7,58.1,165.2,57z"/>
	</g>
</g>
</svg>
